<mxfile>
  <diagram>
    <mxGraphModel dx="4000" dy="4000" grid="1" gridSize="10" guides="1" tooltips="1" connect="1" arrows="1" fold="1" pageScale="1" pageWidth="4000" pageHeight="4000" math="0" shadow="0">
      <root>
        <mxCell id="0"/>
        <mxCell id="1" parent="0"/>
        <object label="Webex EQ CODEC, CS-CODEC-EQ-NR++" type="matrix" id="7587967960800765328">
          <mxCell id="9512476781559374944" value="Webex EQ CODEC, CS-CODEC-EQ-NR++" style="rounded=0;whiteSpace=wrap;html=1;" parent="1" connectable="" edge="" vertex="1" source="" target="">
            <mxGeometry x="1900" y="3400" width="200" height="1400" relative="" as="geometry"/>
          </mxCell>
        </object>
        <object label="Webex EQ CODEC, CS-CODEC-EQ-NR++" type="DTP" id="8997244411674594527">
          <mxCell id="2632784065696536317" value="Webex EQ CODEC, CS-CODEC-EQ-NR++" style="rounded=0;whiteSpace=wrap;html=1;" parent="1" connectable="" edge="" vertex="1" source="" target="">
            <mxGeometry x="1500" y="3400" width="160" height="90" relative="" as="geometry"/>
          </mxCell>
        </object>
        <object label="Webex EQ CODEC, CS-CODEC-EQ-NR++" type="DTP" id="4833259608754623273">
          <mxCell id="6686785929952188291" value="Webex EQ CODEC, CS-CODEC-EQ-NR++" style="rounded=0;whiteSpace=wrap;html=1;" parent="1" connectable="" edge="" vertex="1" source="" target="">
            <mxGeometry x="1500" y="3540" width="160" height="90" relative="" as="geometry"/>
          </mxCell>
        </object>
        <object label="DA HD 4K Plus, 60-1607-01" type="DTP" id="4690724999573408158">
          <mxCell id="4278126895420974336" value="DA HD 4K Plus, 60-1607-01" style="rounded=0;whiteSpace=wrap;html=1;" parent="1" connectable="" edge="" vertex="1" source="" target="">
            <mxGeometry x="1500" y="3680" width="160" height="90" relative="" as="geometry"/>
          </mxCell>
        </object>
        <object label="232-ATSC 4K HDTV, 5114-001" type="DTP" id="7698960407468635449">
          <mxCell id="4791455488857622695" value="232-ATSC 4K HDTV, 5114-001" style="rounded=0;whiteSpace=wrap;html=1;" parent="1" connectable="" edge="" vertex="1" source="" target="">
            <mxGeometry x="1500" y="3960" width="160" height="90" relative="" as="geometry"/>
          </mxCell>
        </object>
        <object label="" type="DTP" id="4970643496161310419">
          <mxCell id="8103793059922390857" value="" style="rounded=0;whiteSpace=wrap;html=1;" parent="1" connectable="" edge="" vertex="1" source="" target="">
            <mxGeometry x="1500" y="4520" width="160" height="90" relative="" as="geometry"/>
          </mxCell>
        </object>
        <object label="" type="DTP" id="3690520747618168986">
          <mxCell id="9281514168866783493" value="" style="rounded=0;whiteSpace=wrap;html=1;" parent="1" connectable="" edge="" vertex="1" source="" target="">
            <mxGeometry x="1500" y="4800" width="160" height="90" relative="" as="geometry"/>
          </mxCell>
        </object>
        <object label="DTP 4K 230 Tx, 60-1271-12" type="DTP" id="8963909141734033490">
          <mxCell id="612873378761833519" value="DTP 4K 230 Tx, 60-1271-12" style="rounded=0;whiteSpace=wrap;html=1;" parent="1" connectable="" edge="" vertex="1" source="" target="">
            <mxGeometry x="1500" y="4940" width="160" height="90" relative="" as="geometry"/>
          </mxCell>
        </object>
        <object label="DTP 4K 230 Tx, 60-1271-12" type="DTP" id="9126036232419802865">
          <mxCell id="2995886822609421437" value="DTP 4K 230 Tx, 60-1271-12" style="rounded=0;whiteSpace=wrap;html=1;" parent="1" connectable="" edge="" vertex="1" source="" target="">
            <mxGeometry x="1500" y="5080" width="160" height="90" relative="" as="geometry"/>
          </mxCell>
        </object>
        <object label="DTP 4K 230 Tx, 60-1271-12" type="DTP" id="4622021348078888458">
          <mxCell id="3412136190262039085" value="DTP 4K 230 Tx, 60-1271-12" style="rounded=0;whiteSpace=wrap;html=1;" parent="1" connectable="" edge="" vertex="1" source="" target="">
            <mxGeometry x="1500" y="5220" width="160" height="90" relative="" as="geometry"/>
          </mxCell>
        </object>
        <object label="DTP 4K 230 Tx, 60-1271-12" type="DTP" id="4864767239495651187">
          <mxCell id="6074714732849647765" value="DTP 4K 230 Tx, 60-1271-12" style="rounded=0;whiteSpace=wrap;html=1;" parent="1" connectable="" edge="" vertex="1" source="" target="">
            <mxGeometry x="1500" y="5360" width="160" height="90" relative="" as="geometry"/>
          </mxCell>
        </object>
        <object label="TEST" type="DTP" id="158137135140603043">
          <mxCell id="6034090784847511263" value="TEST" style="rounded=0;whiteSpace=wrap;html=1;" parent="1" connectable="" edge="" vertex="1" source="" target="">
            <mxGeometry x="1100" y="3400" width="160" height="90" relative="" as="geometry"/>
          </mxCell>
        </object>
        <object label="" type="DTP" id="9545801652580020442">
          <mxCell id="6998484751778155230" value="" style="rounded=0;whiteSpace=wrap;html=1;" parent="1" connectable="" edge="" vertex="1" source="" target="">
            <mxGeometry x="1100" y="3680" width="160" height="90" relative="" as="geometry"/>
          </mxCell>
        </object>
        <object label="OneLink Bridge" type="DTP" id="1614325007445960034">
          <mxCell id="7918895347477010651" value="OneLink Bridge" style="rounded=0;whiteSpace=wrap;html=1;" parent="1" connectable="" edge="" vertex="1" source="" target="">
            <mxGeometry x="1100" y="3960" width="160" height="90" relative="" as="geometry"/>
          </mxCell>
        </object>
        <object label="" type="DTP" id="1045288275221295482">
          <mxCell id="9530796798135798813" value="" style="rounded=0;whiteSpace=wrap;html=1;" parent="1" connectable="" edge="" vertex="1" source="" target="">
            <mxGeometry x="1100" y="4520" width="160" height="90" relative="" as="geometry"/>
          </mxCell>
        </object>
        <object label="" type="DTP" id="132670979922729349">
          <mxCell id="5495163176742601467" value="" style="rounded=0;whiteSpace=wrap;html=1;" parent="1" connectable="" edge="" vertex="1" source="" target="">
            <mxGeometry x="1100" y="5080" width="160" height="90" relative="" as="geometry"/>
          </mxCell>
        </object>
        <object label="" type="DTP" id="8892480350883870928">
          <mxCell id="8678001944582028891" value="" style="rounded=0;whiteSpace=wrap;html=1;" parent="1" connectable="" edge="" vertex="1" source="" target="">
            <mxGeometry x="1100" y="5360" width="160" height="90" relative="" as="geometry"/>
          </mxCell>
        </object>
        <object label="BYOD" type="DTP" id="7184378681354556589">
          <mxCell id="6277185053172371913" value="BYOD" style="rounded=0;whiteSpace=wrap;html=1;" parent="1" connectable="" edge="" vertex="1" source="" target="">
            <mxGeometry x="1100" y="5500" width="160" height="90" relative="" as="geometry"/>
          </mxCell>
        </object>
        <object label="BYOD" type="DTP" id="5244965867007309956">
          <mxCell id="7544544779208488001" value="BYOD" style="rounded=0;whiteSpace=wrap;html=1;" parent="1" connectable="" edge="" vertex="1" source="" target="">
            <mxGeometry x="1100" y="5640" width="160" height="90" relative="" as="geometry"/>
          </mxCell>
        </object>
        <object label="BYOD" type="DTP" id="311526506431535989">
          <mxCell id="5284724163482691350" value="BYOD" style="rounded=0;whiteSpace=wrap;html=1;" parent="1" connectable="" edge="" vertex="1" source="" target="">
            <mxGeometry x="1100" y="5780" width="160" height="90" relative="" as="geometry"/>
          </mxCell>
        </object>
        <object label="BYOD" type="DTP" id="1443785115017480380">
          <mxCell id="5167933875669267034" value="BYOD" style="rounded=0;whiteSpace=wrap;html=1;" parent="1" connectable="" edge="" vertex="1" source="" target="">
            <mxGeometry x="1100" y="5920" width="160" height="90" relative="" as="geometry"/>
          </mxCell>
        </object>
        <object label="" type="DTP" id="3230228634909454302">
          <mxCell id="4794864731277559092" value="" style="rounded=0;whiteSpace=wrap;html=1;" parent="1" connectable="" edge="" vertex="1" source="" target="">
            <mxGeometry x="700" y="3400" width="160" height="90" relative="" as="geometry"/>
          </mxCell>
        </object>
        <object label="" type="DTP" id="5758541437494632476">
          <mxCell id="7542216665429315425" value="" style="rounded=0;whiteSpace=wrap;html=1;" parent="1" connectable="" edge="" vertex="1" source="" target="">
            <mxGeometry x="700" y="3680" width="160" height="90" relative="" as="geometry"/>
          </mxCell>
        </object>
        <object label="Vaddio Roboshot 12E, 999-99600-100" type="DTP" id="1572319702764306219">
          <mxCell id="1646543358720216483" value="Vaddio Roboshot 12E, 999-99600-100" style="rounded=0;whiteSpace=wrap;html=1;" parent="1" connectable="" edge="" vertex="1" source="" target="">
            <mxGeometry x="700" y="3960" width="160" height="90" relative="" as="geometry"/>
          </mxCell>
        </object>
        <object label="" type="DTP" id="9602882263440568972">
          <mxCell id="9290397767578129734" value="" style="rounded=0;whiteSpace=wrap;html=1;" parent="1" connectable="" edge="" vertex="1" source="" target="">
            <mxGeometry x="700" y="4520" width="160" height="90" relative="" as="geometry"/>
          </mxCell>
        </object>
        <object label="" type="DTP" id="3523624765119882695">
          <mxCell id="8681026784262453317" value="" style="rounded=0;whiteSpace=wrap;html=1;" parent="1" connectable="" edge="" vertex="1" source="" target="">
            <mxGeometry x="700" y="5080" width="160" height="90" relative="" as="geometry"/>
          </mxCell>
        </object>
        <object label="" type="DTP" id="3450957278068131557">
          <mxCell id="2331361920389720071" value="" style="rounded=0;whiteSpace=wrap;html=1;" parent="1" connectable="" edge="" vertex="1" source="" target="">
            <mxGeometry x="700" y="5640" width="160" height="90" relative="" as="geometry"/>
          </mxCell>
        </object>
        <object label="" type="DTP" id="8909647043664443014">
          <mxCell id="3982591772666086664" value="" style="rounded=0;whiteSpace=wrap;html=1;" parent="1" connectable="" edge="" vertex="1" source="" target="">
            <mxGeometry x="700" y="6200" width="160" height="90" relative="" as="geometry"/>
          </mxCell>
        </object>
        <object label="" type="DTP" id="4379701362632044023">
          <mxCell id="2659023832468983851" value="" style="rounded=0;whiteSpace=wrap;html=1;" parent="1" connectable="" edge="" vertex="1" source="" target="">
            <mxGeometry x="700" y="6760" width="160" height="90" relative="" as="geometry"/>
          </mxCell>
        </object>
        <object label="" type="DTP" id="1359826719014599469">
          <mxCell id="1700217968902013146" value="" style="rounded=0;whiteSpace=wrap;html=1;" parent="1" connectable="" edge="" vertex="1" source="" target="">
            <mxGeometry x="700" y="7320" width="160" height="90" relative="" as="geometry"/>
          </mxCell>
        </object>
        <object label="" type="DTP" id="1813133261058759446">
          <mxCell id="5258801175613718657" value="" style="rounded=0;whiteSpace=wrap;html=1;" parent="1" connectable="" edge="" vertex="1" source="" target="">
            <mxGeometry x="700" y="7880" width="160" height="90" relative="" as="geometry"/>
          </mxCell>
        </object>
        <object label="Webex EQ CODEC, CS-CODEC-EQ-NR++" type="DTP" id="3885118893010330205">
          <mxCell id="4665848625667084396" value="Webex EQ CODEC, CS-CODEC-EQ-NR++" style="rounded=0;whiteSpace=wrap;html=1;" parent="1" connectable="" edge="" vertex="1" source="" target="">
            <mxGeometry x="2300" y="3400" width="160" height="90" relative="" as="geometry"/>
          </mxCell>
        </object>
        <object label="Webex EQ CODEC, CS-CODEC-EQ-NR++" type="DTP" id="9767527315208298792">
          <mxCell id="7486473074103681915" value="Webex EQ CODEC, CS-CODEC-EQ-NR++" style="rounded=0;whiteSpace=wrap;html=1;" parent="1" connectable="" edge="" vertex="1" source="" target="">
            <mxGeometry x="2300" y="3540" width="160" height="90" relative="" as="geometry"/>
          </mxCell>
        </object>
        <object label="DA HD 4K Plus, 60-1607-01" type="DTP" id="3869386344453781875">
          <mxCell id="1152197706947505979" value="DA HD 4K Plus, 60-1607-01" style="rounded=0;whiteSpace=wrap;html=1;" parent="1" connectable="" edge="" vertex="1" source="" target="">
            <mxGeometry x="2300" y="3680" width="160" height="90" relative="" as="geometry"/>
          </mxCell>
        </object>
        <object label="232-ATSC 4K HDTV, 5114-001" type="DTP" id="8262006157670614551">
          <mxCell id="1767664775058294390" value="232-ATSC 4K HDTV, 5114-001" style="rounded=0;whiteSpace=wrap;html=1;" parent="1" connectable="" edge="" vertex="1" source="" target="">
            <mxGeometry x="2300" y="3820" width="160" height="90" relative="" as="geometry"/>
          </mxCell>
        </object>
        <object label="Test" type="DTP" id="9147711229892438253">
          <mxCell id="9120319424025990594" value="Test" style="rounded=0;whiteSpace=wrap;html=1;" parent="1" connectable="" edge="" vertex="1" source="" target="">
            <mxGeometry x="2300" y="4100" width="160" height="90" relative="" as="geometry"/>
          </mxCell>
        </object>
        <object label="" type="DTP" id="7359734061293655432">
          <mxCell id="5930362202007760043" value="" style="rounded=0;whiteSpace=wrap;html=1;" parent="1" connectable="" edge="" vertex="1" source="" target="">
            <mxGeometry x="2300" y="4380" width="160" height="90" relative="" as="geometry"/>
          </mxCell>
        </object>
        <object label="DTP 4K 230 Tx, 60-1271-12" type="DTP" id="1248171457856839347">
          <mxCell id="8779189264710293103" value="DTP 4K 230 Tx, 60-1271-12" style="rounded=0;whiteSpace=wrap;html=1;" parent="1" connectable="" edge="" vertex="1" source="" target="">
            <mxGeometry x="2300" y="4520" width="160" height="90" relative="" as="geometry"/>
          </mxCell>
        </object>
        <object label="DTP 4K 230 Tx, 60-1271-12" type="DTP" id="2423022688498089782">
          <mxCell id="6154907872405178643" value="DTP 4K 230 Tx, 60-1271-12" style="rounded=0;whiteSpace=wrap;html=1;" parent="1" connectable="" edge="" vertex="1" source="" target="">
            <mxGeometry x="2300" y="4660" width="160" height="90" relative="" as="geometry"/>
          </mxCell>
        </object>
        <object label="DTP 4K 230 Tx, 60-1271-12" type="DTP" id="5796599366804471915">
          <mxCell id="9193566593355726183" value="DTP 4K 230 Tx, 60-1271-12" style="rounded=0;whiteSpace=wrap;html=1;" parent="1" connectable="" edge="" vertex="1" source="" target="">
            <mxGeometry x="2300" y="4800" width="160" height="90" relative="" as="geometry"/>
          </mxCell>
        </object>
        <object label="DTP 4K 230 Tx, 60-1271-12" type="DTP" id="4277019370887262666">
          <mxCell id="1510924300553801379" value="DTP 4K 230 Tx, 60-1271-12" style="rounded=0;whiteSpace=wrap;html=1;" parent="1" connectable="" edge="" vertex="1" source="" target="">
            <mxGeometry x="2300" y="4940" width="160" height="90" relative="" as="geometry"/>
          </mxCell>
        </object>
        <object label="" type="DTP" id="9035936147092409087">
          <mxCell id="8844162635982780080" value="" style="rounded=0;whiteSpace=wrap;html=1;" parent="1" connectable="" edge="" vertex="1" source="" target="">
            <mxGeometry x="2700" y="3400" width="160" height="90" relative="" as="geometry"/>
          </mxCell>
        </object>
        <object label="" type="DTP" id="4210103503778297405">
          <mxCell id="807675260886086941" value="" style="rounded=0;whiteSpace=wrap;html=1;" parent="1" connectable="" edge="" vertex="1" source="" target="">
            <mxGeometry x="2700" y="3960" width="160" height="90" relative="" as="geometry"/>
          </mxCell>
        </object>
        <object label="" type="DTP" id="4006014130632604853">
          <mxCell id="5199706265919892054" value="" style="rounded=0;whiteSpace=wrap;html=1;" parent="1" connectable="" edge="" vertex="1" source="" target="">
            <mxGeometry x="2700" y="4520" width="160" height="90" relative="" as="geometry"/>
          </mxCell>
        </object>
        <object label="" type="DTP" id="6402766902627804914">
          <mxCell id="4855531237550608002" value="" style="rounded=0;whiteSpace=wrap;html=1;" parent="1" connectable="" edge="" vertex="1" source="" target="">
            <mxGeometry x="2700" y="5080" width="160" height="90" relative="" as="geometry"/>
          </mxCell>
        </object>
        <object label="" type="DTP" id="6657256412134183863">
          <mxCell id="9872919848290868536" value="" style="rounded=0;whiteSpace=wrap;html=1;" parent="1" connectable="" edge="" vertex="1" source="" target="">
            <mxGeometry x="2700" y="5640" width="160" height="90" relative="" as="geometry"/>
          </mxCell>
        </object>
        <object label="" type="DTP" id="9365529250049125930">
          <mxCell id="832573821228593671" value="" style="rounded=0;whiteSpace=wrap;html=1;" parent="1" connectable="" edge="" vertex="1" source="" target="">
            <mxGeometry x="2700" y="5920" width="160" height="90" relative="" as="geometry"/>
          </mxCell>
        </object>
        <object label="75 UHD Samsung" type="DTP" id="6777045599042968255">
          <mxCell id="2142463144314213163" value="75 UHD Samsung" style="rounded=0;whiteSpace=wrap;html=1;" parent="1" connectable="" edge="" vertex="1" source="" target="">
            <mxGeometry x="2700" y="6060" width="160" height="90" relative="" as="geometry"/>
          </mxCell>
        </object>
        <object label="75 UHD Samsung" type="DTP" id="1746607869380110981">
          <mxCell id="8029962341546290334" value="75 UHD Samsung" style="rounded=0;whiteSpace=wrap;html=1;" parent="1" connectable="" edge="" vertex="1" source="" target="">
            <mxGeometry x="2700" y="6200" width="160" height="90" relative="" as="geometry"/>
          </mxCell>
        </object>
        <object label="75 UHD Samsung" type="DTP" id="7297110328279889125">
          <mxCell id="2450027415921423654" value="75 UHD Samsung" style="rounded=0;whiteSpace=wrap;html=1;" parent="1" connectable="" edge="" vertex="1" source="" target="">
            <mxGeometry x="2700" y="6340" width="160" height="90" relative="" as="geometry"/>
          </mxCell>
        </object>
        <object label="75 UHD Samsung" type="DTP" id="8554739450429327188">
          <mxCell id="1120409863029473413" value="75 UHD Samsung" style="rounded=0;whiteSpace=wrap;html=1;" parent="1" connectable="" edge="" vertex="1" source="" target="">
            <mxGeometry x="2700" y="6620" width="160" height="90" relative="" as="geometry"/>
          </mxCell>
        </object>
        <object label="" type="DTP" id="2728047873495377475">
          <mxCell id="6416201669589202067" value="" style="rounded=0;whiteSpace=wrap;html=1;" parent="1" connectable="" edge="" vertex="1" source="" target="">
            <mxGeometry x="3100" y="3400" width="160" height="90" relative="" as="geometry"/>
          </mxCell>
        </object>
        <object label="" type="DTP" id="8442283906463784556">
          <mxCell id="7387050524821954244" value="" style="rounded=0;whiteSpace=wrap;html=1;" parent="1" connectable="" edge="" vertex="1" source="" target="">
            <mxGeometry x="3100" y="3960" width="160" height="90" relative="" as="geometry"/>
          </mxCell>
        </object>
        <object label="" type="DTP" id="720700380098162546">
          <mxCell id="1579180789416135296" value="" style="rounded=0;whiteSpace=wrap;html=1;" parent="1" connectable="" edge="" vertex="1" source="" target="">
            <mxGeometry x="3100" y="4520" width="160" height="90" relative="" as="geometry"/>
          </mxCell>
        </object>
        <object label="" type="DTP" id="7013696389173578068">
          <mxCell id="3370037294130757221" value="" style="rounded=0;whiteSpace=wrap;html=1;" parent="1" connectable="" edge="" vertex="1" source="" target="">
            <mxGeometry x="3100" y="5080" width="160" height="90" relative="" as="geometry"/>
          </mxCell>
        </object>
        <object label="" type="DTP" id="3683429598664763125">
          <mxCell id="4805689994943370982" value="" style="rounded=0;whiteSpace=wrap;html=1;" parent="1" connectable="" edge="" vertex="1" source="" target="">
            <mxGeometry x="3100" y="5640" width="160" height="90" relative="" as="geometry"/>
          </mxCell>
        </object>
        <object label="" type="DTP" id="8451428596311653048">
          <mxCell id="9457026762382646230" value="" style="rounded=0;whiteSpace=wrap;html=1;" parent="1" connectable="" edge="" vertex="1" source="" target="">
            <mxGeometry x="3100" y="6200" width="160" height="90" relative="" as="geometry"/>
          </mxCell>
        </object>
        <object label="" type="DTP" id="8124101046097707595">
          <mxCell id="6672044300890236553" value="" style="rounded=0;whiteSpace=wrap;html=1;" parent="1" connectable="" edge="" vertex="1" source="" target="">
            <mxGeometry x="3100" y="6760" width="160" height="90" relative="" as="geometry"/>
          </mxCell>
        </object>
        <object label="" type="DTP" id="1373232972740139717">
          <mxCell id="5517403548716221107" value="" style="rounded=0;whiteSpace=wrap;html=1;" parent="1" connectable="" edge="" vertex="1" source="" target="">
            <mxGeometry x="3100" y="7320" width="160" height="90" relative="" as="geometry"/>
          </mxCell>
        </object>
        <object label="" type="DTP" id="3509027540837413090">
          <mxCell id="1365612513179001408" value="" style="rounded=0;whiteSpace=wrap;html=1;" parent="1" connectable="" edge="" vertex="1" source="" target="">
            <mxGeometry x="3100" y="7880" width="160" height="90" relative="" as="geometry"/>
          </mxCell>
        </object>
        <object label="" type="DTP" id="8706925557222419320">
          <mxCell id="252889980605743307" value="" style="rounded=0;whiteSpace=wrap;html=1;" parent="1" connectable="" edge="" vertex="1" source="" target="">
            <mxGeometry x="3100" y="8440" width="160" height="90" relative="" as="geometry"/>
          </mxCell>
        </object>
      </root>
    </mxGraphModel>
  </diagram>
</mxfile>
